<svg xmlns="http://www.w3.org/2000/svg" width="780" height="504" font-family="-apple-system,Segoe UI,Helvetica,Arial,sans-serif">
<rect width="780" height="504" fill="#fff"/>
<text x="16" y="28" font-size="16" font-weight="600" fill="#24292f">图3 · 含「？？？」（3 个以上）的评论占比</text>
<line x1="210" y1="44" x2="210" y2="464" stroke="#d0d7de"/>
<text x="210" y="484" font-size="11" fill="#57606a" text-anchor="middle">0</text>
<line x1="330" y1="44" x2="330" y2="464" stroke="#d0d7de"/>
<text x="330" y="484" font-size="11" fill="#57606a" text-anchor="middle">3</text>
<line x1="450" y1="44" x2="450" y2="464" stroke="#d0d7de"/>
<text x="450" y="484" font-size="11" fill="#57606a" text-anchor="middle">7</text>
<line x1="570" y1="44" x2="570" y2="464" stroke="#d0d7de"/>
<text x="570" y="484" font-size="11" fill="#57606a" text-anchor="middle">11</text>
<line x1="690" y1="44" x2="690" y2="464" stroke="#d0d7de"/>
<text x="690" y="484" font-size="11" fill="#57606a" text-anchor="middle">15</text>
<text x="200" y="70" font-size="12.5" fill="#24292f" text-anchor="end">《崩坏：星穹铁道》即兴巡演PV——「至此，已成艺术」</text>
<rect x="210" y="52" width="1" height="25" rx="3" fill="#cf222e"/>
<text x="219" y="70" font-size="12.5" font-weight="600" fill="#24292f">0.0%</text>
<text x="200" y="112" font-size="12.5" fill="#24292f" text-anchor="end">暗区突围X少女前线2：追放 联动访谈实录</text>
<rect x="210" y="94" width="1" height="25" rx="3" fill="#cf222e"/>
<text x="219" y="112" font-size="12.5" font-weight="600" fill="#24292f">0.0%</text>
<text x="200" y="154" font-size="12.5" fill="#24292f" text-anchor="end">【泽元电台】加强上路？利好换线？一年一度的世界赛版本又来了！</text>
<rect x="210" y="136" width="1" height="25" rx="3" fill="#cf222e"/>
<text x="219" y="154" font-size="12.5" font-weight="600" fill="#24292f">0.0%</text>
<text x="200" y="196" font-size="12.5" fill="#24292f" text-anchor="end">【独家】镇魂街第五季 王国纷争篇定档12月11日！</text>
<rect x="210" y="178" width="1" height="25" rx="3" fill="#cf222e"/>
<text x="219" y="196" font-size="12.5" font-weight="600" fill="#24292f">0.0%</text>
<text x="200" y="238" font-size="12.5" fill="#24292f" text-anchor="end">带着豆包去买瓜</text>
<rect x="210" y="220" width="1" height="25" rx="3" fill="#cf222e"/>
<text x="219" y="238" font-size="12.5" font-weight="600" fill="#24292f">0.0%</text>
<text x="200" y="280" font-size="12.5" fill="#24292f" text-anchor="end">第一届《汽车运动会》！！！</text>
<rect x="210" y="262" width="1" height="25" rx="3" fill="#cf222e"/>
<text x="219" y="280" font-size="12.5" font-weight="600" fill="#24292f">0.0%</text>
<text x="200" y="322" font-size="12.5" fill="#24292f" text-anchor="end">【剧情】大理石厅谋杀案（2026）01【莱丝利·曼维尔 / 蒂姆</text>
<rect x="210" y="304" width="1" height="25" rx="3" fill="#cf222e"/>
<text x="219" y="322" font-size="12.5" font-weight="600" fill="#24292f">0.0%</text>
<text x="200" y="364" font-size="12.5" fill="#24292f" text-anchor="end">这是啥户型啊？</text>
<rect x="210" y="346" width="1" height="25" rx="3" fill="#cf222e"/>
<text x="219" y="364" font-size="12.5" font-weight="600" fill="#24292f">0.0%</text>
<text x="200" y="406" font-size="12.5" fill="#24292f" text-anchor="end">迈克尔·许家印《朋友的酒DJ》史上经典演唱会开场！人生必看的现场</text>
<rect x="210" y="388" width="1" height="25" rx="3" fill="#cf222e"/>
<text x="219" y="406" font-size="12.5" font-weight="600" fill="#24292f">0.0%</text>
<text x="200" y="448" font-size="12.5" fill="#24292f" text-anchor="end">和同父异母的妹妹去旅游会发生什么？</text>
<rect x="210" y="430" width="1" height="25" rx="3" fill="#cf222e"/>
<text x="219" y="448" font-size="12.5" font-weight="600" fill="#24292f">0.0%</text>
<text x="760" y="496" font-size="11" fill="#57606a" text-anchor="end">数据与代码开源 · 样本来自 B 站热门榜公开数据</text></svg>